<svg width="24" height="24" viewBox="0 0 24 24" fill="none" xmlns="http://www.w3.org/2000/svg">
<path d="M9.45447 9.28412C9.33448 8.29961 10.418 7.62252 11.2503 8.16195L22.7124 15.591C23.5875 16.1581 23.338 17.5005 22.3176 17.7154L17.128 18.8081C16.8576 18.8651 16.6161 19.0159 16.4464 19.234L13.1895 23.4192C12.5491 24.2422 11.2331 23.878 11.107 22.8428L9.45447 9.28412Z" fill="#5254F0"/>
<path d="M1.19922 7.03815C1.19237 6.68078 1.5406 6.42377 1.87988 6.53619L6.83105 8.1778C7.29504 8.33156 7.30736 8.98292 6.84961 9.15436L1.96484 10.9835C1.63022 11.1087 1.27263 10.8661 1.26562 10.5089L1.19922 7.03815ZM12.0322 0.611389C12.0837 0.257838 12.4697 0.0615607 12.7861 0.2276L15.8594 1.8399C16.1759 2.00599 16.2336 2.43556 15.9717 2.67877L12.1494 6.2276C11.7912 6.5602 11.214 6.25724 11.2842 5.7735L12.0322 0.611389ZM6.79297 0.0772095C7.09747 -0.109993 7.49509 0.0598066 7.57031 0.409241L8.66797 5.50885C8.77056 5.98651 8.21582 6.32782 7.83594 6.02057L3.78125 2.73834C3.50359 2.51344 3.53151 2.08176 3.83594 1.89459L6.79297 0.0772095Z" fill="#FF8222"/>
</svg>
