<svg preserveAspectRatio="none" overflow="visible" style="display: block;" width="12" height="16" viewBox="0 0 12 16" fill="none" xmlns="http://www.w3.org/2000/svg">
<g id="Frame 2087327922">
<path id="Union" d="M2.27359 1.55384C2.65315 1.15294 3.28655 1.13542 3.68766 1.51478L9.75309 7.25403C9.93934 7.43027 10.0412 7.66164 10.0607 7.89856C10.0618 7.90996 10.063 7.92133 10.0636 7.93274C10.0644 7.94967 10.0647 7.96658 10.0646 7.98353C10.0648 8.00211 10.0645 8.02063 10.0636 8.03919C10.0633 8.0454 10.0622 8.05154 10.0617 8.05774C10.0458 8.29867 9.94536 8.53501 9.75699 8.71497L3.71891 14.4825C3.31952 14.864 2.68531 14.8487 2.30387 14.4493C1.92279 14.0499 1.93784 13.4166 2.33707 13.0353L7.62027 7.98938L2.31266 2.9679C1.91157 2.58831 1.89404 1.95498 2.27359 1.55384Z" fill="white"/>
</g>
</svg>
