<svg preserveAspectRatio="none" overflow="visible" style="display: block;" width="260" height="278.345" viewBox="0 0 260 278.345" fill="none" xmlns="http://www.w3.org/2000/svg">
<g id="img_bg_darudalogo_278">
<path id="Union" d="M97.3202 107.675C95.9049 96.1567 108.686 88.2352 118.503 94.5464L253.704 181.464C264.026 188.1 261.084 203.807 249.047 206.321L187.833 219.105C184.643 219.771 181.795 221.537 179.793 224.088L141.377 273.054C133.822 282.683 118.301 278.421 116.812 266.31L97.3202 107.675ZM0.00180219 84.52C-0.108562 78.8102 5.45199 74.7024 10.8778 76.4858L60.3123 92.7358C67.7638 95.1854 67.9665 105.653 60.6151 108.384L11.8446 126.502C6.49195 128.491 0.776687 124.598 0.665865 118.888L0.00180219 84.52ZM127.279 9.32272C128.106 3.67011 134.304 0.510637 139.383 3.15378L170.114 19.1499C175.192 21.7931 176.094 28.6481 171.874 32.5346L133.655 67.7348C127.898 73.0366 118.664 68.2302 119.792 60.519L127.279 9.32272ZM63.2655 1.57565C68.1524 -1.40445 74.5523 1.32484 75.7635 6.90573L86.7391 57.4731C88.392 65.09 79.5005 70.5121 73.3944 65.6108L32.8563 33.0708C28.3828 29.4795 28.8165 22.5832 33.703 19.603L63.2655 1.57565Z" fill="#E0E7FF"/>
</g>
</svg>
