<svg width="53" height="53" viewBox="0 0 53 53" fill="none" xmlns="http://www.w3.org/2000/svg">
<path d="M38.0059 24.7993C44.6328 24.7997 50.0057 30.1723 50.0059 36.7993C50.0059 43.4265 44.6329 48.7989 38.0059 48.7993C31.3784 48.7993 26.0059 43.4267 26.0059 36.7993C26.006 30.172 31.3785 24.7993 38.0059 24.7993ZM38.0068 29.6001C37.4863 29.6001 37.0646 30.022 37.0645 30.5425V35.8589H31.75C31.2295 35.8589 30.8078 36.2808 30.8076 36.8013C30.8077 37.3218 31.2294 37.7436 31.75 37.7437H37.0645V43.0571C37.0647 43.5776 37.4863 43.9995 38.0068 43.9995C38.5269 43.999 38.949 43.5772 38.9492 43.0571V37.7437H44.2646C44.7848 37.7431 45.2069 37.3215 45.207 36.8013C45.2069 36.2811 44.7847 35.8594 44.2646 35.8589H38.9492V30.5425C38.9491 30.0223 38.5269 29.6006 38.0068 29.6001ZM34.6475 3.19971C37.9108 3.2003 40.408 5.69603 40.4082 8.95947V22.6001C39.6271 22.4689 38.8243 22.3999 38.0059 22.3999C37.5207 22.3999 37.0402 22.4233 36.5674 22.4702V8.95947C36.5672 7.80805 35.7987 7.04007 34.6475 7.03955H7.76758C6.61582 7.03965 5.8478 7.80774 5.84766 8.95947V22.2075L9.49609 18.5601C11.6082 16.4486 15.2558 16.4482 17.5596 18.5601L23.1279 24.1274L24.8555 22.3999C26.9676 20.2884 30.6161 20.2881 32.9199 22.3999L33.6055 23.0854C27.8047 24.945 23.6055 30.3821 23.6055 36.8003C23.6055 38.4833 23.8951 40.0988 24.4258 41.6001H7.76758L7.46387 41.5923C4.35019 41.4427 2.00791 39.0012 2.00781 35.8394V8.95947C2.00798 5.69571 4.5038 3.19983 7.76758 3.19971H34.6475Z" fill="#BDBDBD"/>
</svg>
