<svg width="20" height="20" viewBox="0 0 20 20" fill="none" xmlns="http://www.w3.org/2000/svg">
<path d="M8.69531 1.5625C12.6347 1.5625 15.8289 4.75594 15.8291 8.69531C15.8291 10.3272 15.2796 11.8302 14.3574 13.0322L18.1621 16.8369C18.5282 17.203 18.5282 17.797 18.1621 18.1631C17.796 18.5292 17.2021 18.5292 16.8359 18.1631L13.0312 14.3584C11.8294 15.2801 10.3267 15.8291 8.69531 15.8291C4.75594 15.8289 1.5625 12.6347 1.5625 8.69531C1.56268 4.75605 4.75605 1.56268 8.69531 1.5625ZM8.69531 3.4375C5.79158 3.43768 3.43768 5.79158 3.4375 8.69531C3.4375 11.5992 5.79147 13.9539 8.69531 13.9541C11.5993 13.9541 13.9541 11.5993 13.9541 8.69531C13.9539 5.79147 11.5992 3.4375 8.69531 3.4375Z" fill="#525252"/>
</svg>
