<svg width="20" height="20" viewBox="0 0 20 20" fill="none" xmlns="http://www.w3.org/2000/svg">
<path d="M16.0857 9.30327C16.4705 9.30327 16.7824 9.61522 16.7824 10C16.7824 10.3848 16.4705 10.6968 16.0857 10.6968L10.6961 10.6961V16.0864C10.6959 16.4711 10.3847 16.7824 10 16.7824C9.6153 16.7824 9.30407 16.4711 9.30394 16.0864V10.6961H3.91363C3.52896 10.6959 3.21758 10.3847 3.21758 10C3.21758 9.61532 3.52896 9.30412 3.91363 9.30396L9.30325 9.30327V3.91435C9.30325 3.52956 9.61522 3.21763 10 3.2176C10.3848 3.2176 10.6967 3.52954 10.6967 3.91435V9.30327H16.0857Z" fill="currentColor"/>
</svg>
