<svg width="20" height="20" viewBox="0 0 20 20" fill="none" xmlns="http://www.w3.org/2000/svg">
<path d="M13.8105 5.2041C14.0826 4.932 14.5238 4.932 14.7959 5.2041C15.068 5.4762 15.068 5.91736 14.7959 6.18945L10.9844 10L14.7959 13.8115C15.0678 14.0836 15.0679 14.5239 14.7959 14.7959C14.5239 15.0679 14.0836 15.0678 13.8115 14.7959L10 10.9844L6.18848 14.7959C5.91636 15.0678 5.47613 15.0679 5.2041 14.7959C4.93207 14.5239 4.93221 14.0836 5.2041 13.8115L9.01465 10L5.2041 6.18945C4.93202 5.91737 4.93204 5.4762 5.2041 5.2041C5.4762 4.932 5.91736 4.932 6.18945 5.2041L10 9.01465L13.8105 5.2041Z" fill="currentColor"/>
</svg>
